<svg xmlns="http://www.w3.org/2000/svg" width="75.9" height="78.112" viewBox="0 0 75.9 78.112"><g transform="translate(860.105 -2845.789)"><g transform="translate(-1427 4.261)"><path d="M406.016,121.909c-.051,0,.076-.089.305-.159C405.9,121.839,405.717,121.909,406.016,121.909Z" transform="translate(227.136 2796.866)" fill="#93969a"/><path d="M406.58,121.645l.35-.1h0Z" transform="translate(226.877 2796.939)" fill="#93969a"/><path d="M406.68,120.558l.216-.07-.07-.038a.343.343,0,0,0-.146.108Z" transform="translate(226.84 2797.34)" fill="#93969a"/><path d="M1475.1,73.851h0a4.554,4.554,0,0,0-.721-.056c-.035,0-.108,0-.194,0a.078.078,0,0,0-.013-.065c-.056-.068-.254-.077-.44-.077l-.215,0h-.1l-.155,0a1.929,1.929,0,0,1-.416-.032c-.12-.03-.178-.079-.178-.149-.074,0-.147,0-.25,0-.523,0-.815.051-.869.15a4.06,4.06,0,0,1-.418.022,5.739,5.739,0,0,1-1.243-.165l-.017,0-.016,0-.01,0a5.661,5.661,0,0,0-1.249-.168,3.9,3.9,0,0,0-.753.073l-.14-.355c-.067,0-.136-.005-.205-.005a1.283,1.283,0,0,0-.546.089,1.352,1.352,0,0,1-.551.093c-.153,0-.345-.012-.6-.037a14.991,14.991,0,0,0-2.174-.432c-2.22-.039-4.462-.178-6.629-.312l-.051,0-.047,0-.041,0-.045,0c-2.186-.137-4.447-.278-6.656-.311.039.232.4.265.791.265l.157,0h.079l.227,0c.213,0,.419.011.482.088a.1.1,0,0,1,.019.085c-1.125-.018-2.354-.026-3.869-.026-1.15,0-2.3,0-3.372.01h-.4l-.217,0h-.388c-1.592.009-2.811.013-3.835.013h-5.218c-.174.007-.354.011-.535.011a12.819,12.819,0,0,1-2.148-.183,6.044,6.044,0,0,1-4-2.746,5.81,5.81,0,0,1-.826-2.282,11.8,11.8,0,0,1-.064-2.6l.039-.928v-.629c.02-.318.058-.588.094-.85l0-.018,0-.019V62.28l0-.014.013-.092c.072-.525.168-1.113.311-1.907a29.434,29.434,0,0,0,.521-3.986l.045.427a20.428,20.428,0,0,0-.164-2.691V54c-.177-1.96-.378-4.18-.145-4.561a15.918,15.918,0,0,1,.227-2v-.005a9.319,9.319,0,0,0,.1-2.338,3.241,3.241,0,0,0,.368-1.99l-.027-.534,0-.038v-.022c-.005-.1-.01-.2-.015-.3l0-.05,0-.043-.01-.2-.044-.878-.068-1.345c.008-.843.032-1.712.056-2.53l0-.068c.048-1.707.1-3.472.044-5.349-.1.4-.206.634-.292.634a.065.065,0,0,1-.051-.033c-.182-.256-.11-1.911.679-4.161a4.585,4.585,0,0,0-.094-1.314,2.706,2.706,0,0,1,0-1.312c-.178-.771-.325-1.755-.455-2.623v-.007l0-.018,0-.018,0-.01c-.075-.509-.143-.952-.2-1.317.016-1.921.146-4.087.419-7.024l.025-.256.022-.22q.161-1.6.327-3.263c.03-.3.06-.589.092-.885l.032-.313.007-.07c.019-.181.038-.363.056-.544l0-.043.005-.051.1-.96,0-.04,0-.029v-.01a5.521,5.521,0,0,0,.043-.589l.058-.75a7.118,7.118,0,0,1,.495-2.257,5.709,5.709,0,0,1,1.234-1.906,6.048,6.048,0,0,1,3.973-1.78c.3-.039.6-.07.862-.1l.02,0,.031,0,.053-.006c.262-.026.462-.048.648-.07a1.289,1.289,0,0,0,.211.013c1.038,0,4.856-.485,8.9-1l.062-.008.085-.011.925-.117c4.709-.6,9.057-1.134,10.5-1.134a1.113,1.113,0,0,1,.477.057,2.884,2.884,0,0,1,.3-.068c.212-.041.452-.088.452-.167,1.681-.142,3.2-.154,4.669-.165h.083c1.492-.012,3.035-.024,4.784-.169h-.325c3.453-.346,7.226-.611,10.554-.845l.087-.005.039,0h.02c3.079-.216,6.262-.438,9.038-.71a15.574,15.574,0,0,0,2.574.217c.432,0,.879-.019,1.329-.058l1.665-.191.445-.051.591-.057,1.621-.147a7.441,7.441,0,0,1,.794-.043,7.4,7.4,0,0,1,2.455.419,6.128,6.128,0,0,1,2.695,2.028,6.226,6.226,0,0,1,.852,1.513,6.98,6.98,0,0,1,.407,1.716,14.969,14.969,0,0,1,.057,1.907V4.968l.008,1.451v.415l0,.764V7.6c.006,1.577.017,4.217.057,6.634-.024,2.612-.107,5.273-.187,7.847V22.1l0,.13v.017l0,.055,0,.056,0,.046,0,.056c-.127,4.121-.259,8.382-.15,12.372-.5,10.82-1.126,20.42-1.907,29.35l.14-.058a8.808,8.808,0,0,0-.26,2.068,10.019,10.019,0,0,1-.375,2.6c-.058.291-.109.432-.155.432-.086,0-.144-.5-.2-1.025v-.006l-.016-.15c-.073-.622-.149-1.181-.275-1.181-.036,0-.071.041-.112.131-.052-1.637-.154-2.825-.254-3.974l0-.042v-.014c-.129-1.481-.25-2.879-.25-4.984a13.675,13.675,0,0,1-.858-4.253l-.375,15h-11.3a.4.4,0,0,0,.114.114l-.016,0h-.047l-.188,0c-.223,0-.346-.021-.365-.061-.007-.017,0-.037.02-.059h-.635a1.511,1.511,0,0,0,.557.43l.035.021c.082.046.142.083.189.115.85.055,2.207.114,3.179.114.108-.031.159-.056.163-.079s-.017-.032-.034-.044-.041-.028-.037-.04.114-.051.34-.079a1.561,1.561,0,0,1,.217-.014,2.353,2.353,0,0,1,.567.083l.016,0,.01,0,.031.008.007,0a2.019,2.019,0,0,0,.488.079,1.074,1.074,0,0,0,.419-.087.078.078,0,0,0,0,.075c.066.126.471.2.829.262l.043.008.032.006c.112.02.208.037.291.056a.127.127,0,0,0,.054-.1c.008-.087.015-.162.581-.162a3.383,3.383,0,0,1,1.634.471c.141-.007.249-.011.347-.013h.031c.856-.031,1.74-.064,1.765-.221.01-.066-.132-.149-.434-.255.57.022.88.116.947.286.083.214-.219.515-.512.807s-.569.568-.495.756c.054.138.3.213.741.229l.229-.089c.11.013.17.036.181.07s-.026.069-.067.108c.01.024-.006.034-.034.049a.148.148,0,0,0-.061.052.081.081,0,0,0-.01.083c.014.026.053.057.163.057.03,0,.045,0,.045.007a11.962,11.962,0,0,1-1.487.375l-.073.017-.265.06-.133.031-.017,0-.553.127a8.917,8.917,0,0,0,1.721-.562s0-.006,0-.01a1.932,1.932,0,0,0,.206.013,1.963,1.963,0,0,0,.292-.024.83.83,0,0,0-.33-.076,4.639,4.639,0,0,0-.521.063h-.382a5.584,5.584,0,0,0-.635.128c-.006.024.017.041.054.063l.009.006c.051.033.114.073.114.153-.221.019-.441.028-.655.028a7.567,7.567,0,0,1-1.169-.092l.242-.082v-.039a5.417,5.417,0,0,0-.979.166l.349.076.147-.058a.044.044,0,0,0,0,.042c.046.082.368.12.709.16h.013a5.583,5.583,0,0,1,.638.1l.078-.022.049-.014c.124.037.183.07.2.111a.065.065,0,0,1-.007.059c.055.029.076.056.069.086-.019.077-.248.133-.544.133-.056,0-.121,0-.217-.009a2.784,2.784,0,0,0-.636-.1l.222-.063-.229.057-.04,0h-.03c-.274-.027-.511-.05-.542-.138-.012-.036.012-.082.072-.136a11.209,11.209,0,0,1-1.166.043h-.468a2.785,2.785,0,0,0-.782.053,5.849,5.849,0,0,0-.74-.054h-.042c-.633-.022-1.351-.046-1.431-.275.247.02.491.032.728.032a8.375,8.375,0,0,0,1.3-.1,1.576,1.576,0,0,0-.513-.079c-.074,0-.142,0-.216.007h-.046c-.048,0-.1.006-.158.006a.667.667,0,0,1-.459-.139,1.22,1.22,0,0,0-.322-.045,1.1,1.1,0,0,0-.585.182l-.006,0a.661.661,0,0,1-.319.121,37.549,37.549,0,0,1-4.145-.635c-.126.01-.254.014-.391.014-.254,0-.558-.015-.8-.027l-.026,0-.026,0h-.028c-.305-.016-.555-.027-.781-.027a3.45,3.45,0,0,0-.616.044c1.793.408,3.848.74,5.257.947-.161-.014-.323-.022-.495-.022a5.533,5.533,0,0,0-1.3.156c.112-.065.158-.136.138-.214a.26.26,0,0,0-.247-.16h-1.92c.15.021.223.061.22.117-.007.1-.328.245-.912.245l-.28-.063c-.368.1-2.658.542-4.173.834l-.119.023h-.007l-.034.007-.006,0c-1.049.2-2.134.412-2.379.468Zm20.921-2.809h-.007l0,0a.135.135,0,0,0-.13.114.141.141,0,0,0,.1.157c.169-.077.257-.143.248-.185s-.074-.05-.2-.05Zm-7.675-31.671h0c.25,2.388,3.207,2.416,3.236,2.416,1.707,0,3.1-.789,3.477-1.964l-.114-.114c-.132.452-.8.457-.807.457-1.257,0-1.272-1.888-1.272-1.907V34.241c0-3.325-2.107-5.39-5.5-5.39-.048,0-.1,0-.142,0a5.373,5.373,0,0,0-2.4.567,6.152,6.152,0,0,0-1.8,1.38,1.907,1.907,0,1,0,3.178.534,1.771,1.771,0,0,0-.992-1.023c-.324-.115-.495-.246-.509-.388s.141-.253.189-.284a2.372,2.372,0,0,1,1.1-.294,2.007,2.007,0,0,1,1.677.983,4.8,4.8,0,0,1,.67,2.654V34.7l-.238.058c-4.638,1.121-6.755,1.633-6.755,4.284,0,2.168,2.117,2.746,3.369,2.746a3.491,3.491,0,0,0,3.634-2.415Zm-17.886-2.028v3.528a10.013,10.013,0,0,0,4.792.915c3.034,0,4.107-1.4,4.151-1.454a3.7,3.7,0,0,0,.731-3.031,4.724,4.724,0,0,0-2.319-3.245l-2.721-1.7c-1.085-.686-1.607-1.527-1.4-2.249a1.585,1.585,0,0,1,1.639-.986c.086,0,.141,0,.18,0a4.086,4.086,0,0,1,3.99,3.26h.242V29.633a10.112,10.112,0,0,0-4.393-.756c-3.024,0-4.059,1.258-4.068,1.271a3.328,3.328,0,0,0-.871,2.718,5.127,5.127,0,0,0,2.434,3.455l2.7,1.64a2.359,2.359,0,0,1,1.282,2.542,1.527,1.527,0,0,1-1.58,1.043,5.249,5.249,0,0,1-4.551-4.2Zm-30.317-1.049h5.283l.858,1.856c.01.019.947,1.89.423,2.745a1.035,1.035,0,0,1-.957.434v.229h9.427v-.216l-.044,0c-.538-.052-1.439-.138-2.379-2.233-.005-.01-.586-1.2-7.278-16.529h-.133L1439.9,36.32c-2.135,4.869-3.625,4.964-4.342,5.009v.191h7.762V41.3a3.047,3.047,0,0,1-2.664-1.385,4.41,4.41,0,0,1-.515-3.623Zm20.794-14.849h0l-6.007,1.131v.216c1.109.4,1.43.788,1.43,1.723V38.5c0,1.3,0,2.522-1.055,2.829v.217h6.738v-.217c-.917-.255-1.1-1.23-1.106-2.829V21.445Zm7.463,7.405h0l-5.975,1.131V30.2c1.1.407,1.4.779,1.4,1.73V38.5c0,1.3,0,2.523-1.049,2.829v.216h6.732v-.216c-.93-.257-1.112-1.232-1.112-2.829V28.85Zm-2.594-5.8a2.543,2.543,0,1,0,2.543,2.543A2.546,2.546,0,0,0,1465.807,23.046Zm21.385,17.095c-1.036,0-1.048-1.756-1.048-1.774v-.044c0-1.279,0-2.872,2.18-3.35v4.145C1488.009,39.8,1487.629,40.141,1487.192,40.141Zm-41.879-4.069h-5.086l2.4-6.059,2.688,6.057Z" transform="translate(-860.105 2845.789)" fill="#93969a"/></g><path d="M106.052,607.934a.434.434,0,0,0-.275.084.328.328,0,0,0-.107.259.4.4,0,0,0,.1.267.76.76,0,0,0,.259.153,2.853,2.853,0,0,0,.351.1l.381.122a1.673,1.673,0,0,1,.351.175.762.762,0,0,1,.259.29,1.029,1.029,0,0,1,.092.45,1.015,1.015,0,0,1-.374.763,1.457,1.457,0,0,1-.984.328,1.525,1.525,0,0,1-.992-.3,1.022,1.022,0,0,1-.374-.839h.961a.4.4,0,0,0,.442.435.4.4,0,0,0,.3-.1.321.321,0,0,0,.107-.252.374.374,0,0,0-.092-.259.764.764,0,0,0-.259-.153,3.226,3.226,0,0,0-.351-.107,3.835,3.835,0,0,1-.389-.122,1.824,1.824,0,0,1-.343-.175.694.694,0,0,1-.259-.29,1,1,0,0,1-.1-.442.984.984,0,0,1,.381-.809,1.465,1.465,0,0,1,.961-.305,1.6,1.6,0,0,1,.954.259,1.022,1.022,0,0,1,.374.839h-.961a.45.45,0,0,0-.13-.3.366.366,0,0,0-.282-.076Z" transform="translate(-939.472 2291.571)" fill="#272525"/><path d="M112,607.981v-.671h2.861v.671h-.992v2.96h-.877v-2.96Z" transform="translate(-941.822 2291.546)" fill="#272525"/><path d="M119.539,609.477V607.31h.877v2.167a.717.717,0,0,0,.168.5.6.6,0,0,0,.465.175.617.617,0,0,0,.473-.175.679.679,0,0,0,.168-.5V607.31h.885v2.167a1.525,1.525,0,0,1-.221.831,1.411,1.411,0,0,1-.572.511,1.753,1.753,0,0,1-.763.16,1.525,1.525,0,0,1-1.06-.4A1.4,1.4,0,0,1,119.539,609.477Z" transform="translate(-944.269 2291.546)" fill="#272525"/><path d="M128.892,607.31a2.052,2.052,0,0,1,1.427.5,1.823,1.823,0,0,1,0,2.624,2.052,2.052,0,0,1-1.427.5H127.61V607.31Zm-.4,2.96h.4a1.038,1.038,0,0,0,.763-.313,1.338,1.338,0,0,0,0-1.663,1.038,1.038,0,0,0-.763-.313h-.4Z" transform="translate(-946.903 2291.547)" fill="#272525"/><path d="M135.73,610.941V607.31h.877v3.631Z" transform="translate(-949.327 2291.546)" fill="#272525"/><path d="M141.264,610.439a1.88,1.88,0,0,1,2.647-2.67,1.785,1.785,0,0,1,.534,1.335,1.877,1.877,0,0,1-3.181,1.335Zm2.022-.58a1.244,1.244,0,0,0,0-1.526.908.908,0,0,0-.7-.282.893.893,0,0,0-.694.282,1.244,1.244,0,0,0,0,1.526.9.9,0,0,0,.694.29A.915.915,0,0,0,143.286,609.859Z" transform="translate(-951.219 2291.561)" fill="#272525"/></g></svg>