<svg xmlns="http://www.w3.org/2000/svg" width="131.231" height="61.058" viewBox="0 0 131.231 61.058"><g transform="translate(887.237 -3201.043)"><path d="M270.1,415.85h3.585v.127c-.712,0-.68.191-.68,1.081v7.692c0,.992.114,1.227.826,1.227v.127h-4.45v-.127c.687,0,.744-.235.744-1.227v-8.505l-3.77,9.993h-.133l-4.723-8.772v4.78c0,1.907.54,3.731,2.231,3.731v.127H259.19v-.127c1.557,0,2.187-1.824,2.187-3.731v-5c-.572-1-1.036-1.24-1.443-1.271v-.127h4.151l3.528,6.7Z" transform="translate(-1146.427 2809.667)" fill="#272525"/><path d="M294.546,415.85v.1c-.636,0-.947,0-.947,1.271v7.2c0,1.386.337,1.519.947,1.519v.127H289.74v-.127c.636,0,.947-.133.947-1.519v-7.151c0-1.271-.318-1.271-.947-1.271v-.114Z" transform="translate(-1157.557 2809.614)" fill="#272525"/><path d="M314.538,422.531l.146,2.943a7.9,7.9,0,0,1-3.407.686c-3.115,0-5.886-1.964-5.886-5.257s2.772-5.263,5.886-5.263a6.4,6.4,0,0,1,3.407.674l-.146,2.943h-.114c-.439-3.02-2.085-3.484-3.178-3.484-1.615,0-2.3,1.138-2.3,5.13s.725,5.124,2.3,5.124c.992,0,2.651-.6,3.178-3.5Z" transform="translate(-1163.258 2809.725)" fill="#272525"/><path d="M338.745,425.991v.127h-2.9c-1.036,0-1.354-.636-1.7-3.363-.191-1.456-1.939-1.367-1.939-1.367h-.687v3.083c0,1.43.057,1.519.674,1.519v.127H327.83v-.127c.636,0,.763,0,.763-1.519v-7.2c0-.9-.121-1.271-.763-1.271v-.114h4.138c2.9,0,5.511.35,5.511,2.784,0,2.18-2.015,2.632-3.414,2.632,1.678,0,2.543.369,3.236,2.988a2.238,2.238,0,0,0,1.443,1.7Zm-4.691-7.342c0-2.784-.381-2.657-2.085-2.657h-.451v5.263h.451c1.888,0,2.079.025,2.079-2.606Z" transform="translate(-1171.433 2809.616)" fill="#272525"/><path d="M362.6,420.845a3.082,3.082,0,1,1,.032,0Zm-3.541,0c0-3.992-.057-5.2-1.774-5.2s-1.805,1.208-1.805,5.2.07,5.085,1.805,5.085S359.061,424.869,359.061,420.845Z" transform="translate(-1180.237 2809.771)" fill="#272525"/><path d="M391.246,415.839v.1c-.585,0-1.475.451-2.543,3.02l-2.543,7.12h-.528c-1.354-3.178-2.225-5.2-2.81-6.522l-2.333,6.554h-.521c-3.674-8.582-3.865-8.957-3.865-8.957-.5-1.17-.7-1.151-1.074-1.182v-.114h4.545v.083c-.934,0-.191,1.691-.191,1.691l2.2,5,1.163-3.248c-.884-2.066-.973-2.257-.973-2.257-.5-1.17-.7-1.151-1.081-1.182v-.114h4.545v.114c-.928,0-.191,1.691-.191,1.691l2.187,5.009,1.316-3.681c.362-1.036.038-3.02-1.443-3.02v-.114Z" transform="translate(-1188.629 2809.639)" fill="#272525"/><path d="M410.853,415.85h.083c3.687,8.448,3.935,8.9,3.935,8.9.528,1.163,1.017,1.176,1.31,1.208v.159H411.1V426c1.17,0,.292-1.7.292-1.7l-.464-1h-2.861c-.286.636,0,2.708,1.723,2.708v.114h-4.2V426c.439-.032,1.221-.146,2.346-2.708Zm-1.475,4.018-1.271,3.28h2.759Z" transform="translate(-1199.762 2809.631)" fill="#272525"/><path d="M438.3,415.839v.1c-.636,0-1.564.451-2.7,3.02l-2.861,7.151h-.42c-3.909-8.582-4.113-8.957-4.113-8.957-.521-1.17-.744-1.151-1.151-1.182v-.114h4.85v.083c-1,0-.2,1.691-.2,1.691l2.263,5.028,1.5-3.7c.432-1.081.172-3.02-1.577-3.02v-.114Z" transform="translate(-1207.584 2809.639)" fill="#272525"/><path d="M460.755,423.238v2.867H452.25v-.127c.636,0,.845-.877.845-1.869v-6.268c0-.9-.2-1.907-.845-1.907v-.114h8.315v2.988h-.127c0-2.842-3.979-2.861-3.979-2.861h-.521v4.882h1.176a1.716,1.716,0,0,0,1.723-1.716h.127v3.566h-.127a1.729,1.729,0,0,0-1.723-1.716h-1.176v4.984h.521s4.17.159,4.17-2.727Z" transform="translate(-1216.761 2809.639)" fill="#272525"/><path d="M344.536,390.416a7.329,7.329,0,0,1,5.251-.184,9.269,9.269,0,0,1,2.4,1.271c.686.47,1.271.934,1.831,1.271a10.532,10.532,0,0,0,.979.591c.343.172.636.292.934.432a7.978,7.978,0,0,0,6.09-.235c.064.134-.057.439.184.394.947-.21,1.093,0,1.271.235.038.064-.133.165-.273.254s-.267.127-.114.133c-.687.4-1.964.845-1.144.737a2.345,2.345,0,0,0,.795-.229,1.907,1.907,0,0,1,.8-.254c.35.038-.038.528.318.566a10.378,10.378,0,0,0,1-.636c.331-.07,0,.534.254.343a6.865,6.865,0,0,0,2.422-2.479c.057.038.159,0,.21.051s.07.114-.1.413a10.667,10.667,0,0,1-7.126,4.475,10.546,10.546,0,0,1-4.342-.127,9.7,9.7,0,0,1-2.1-.763,11.339,11.339,0,0,1-1.824-1.138,19.273,19.273,0,0,0-2.753-1.907,5.021,5.021,0,0,0-2.606-.483,4.78,4.78,0,0,0-2.454.915,5.086,5.086,0,0,0-1.64,2.041c-.331.737-.458.1-.35-.636-.032.235-.235.146-.254.388-.191-.064-.4-.693.153-1.6a5.442,5.442,0,0,0-.42.636c-.191.2-.191-.1-.318-.178.134-.235.286-.464.229-.5l-.242-.165a7.141,7.141,0,0,0-.559,1.011c.114-.267.261-.515.2-.553l-.254-.14a7.686,7.686,0,0,1,1.271-1.678l-.146-.159a5.875,5.875,0,0,0-1.329,1.729c.1-.305.038-.343-.083-.42a13.051,13.051,0,0,1,1.907-2.206,7.2,7.2,0,0,0-.744.636,2.4,2.4,0,0,1,1.074-1.1,11.445,11.445,0,0,1,1.608-.756Z" transform="translate(-1176.118 2811.211)" fill="#93969a"/><path d="M344.536,448.666a7.329,7.329,0,0,1,5.251-.184,9.453,9.453,0,0,1,2.4,1.233c.687.477,1.271.941,1.831,1.3.337.216.636.413.979.591s.636.292.934.432a7.931,7.931,0,0,0,2.015.451,8.225,8.225,0,0,0,4.075-.687c.064.133-.057.439.184.394.947-.21,1.093,0,1.271.235.038.064-.133.165-.273.248s-.267.133-.114.14c-.687.4-1.964.845-1.144.731a2.079,2.079,0,0,0,.795-.229,1.952,1.952,0,0,1,.8-.248c.35.038-.038.528.318.559a10.313,10.313,0,0,0,1-.636c.331-.07,0,.528.254.343a6.865,6.865,0,0,0,2.422-2.479c.057.038.159,0,.21.051s.07.114-.1.413A10.94,10.94,0,0,1,356.2,455.7a9.4,9.4,0,0,1-2.1-.769,10.907,10.907,0,0,1-1.824-1.138,19.709,19.709,0,0,0-2.753-1.907,5.022,5.022,0,0,0-2.606-.483,4.78,4.78,0,0,0-2.454.915,5.085,5.085,0,0,0-1.665,2.066c-.331.737-.458.1-.35-.636-.032.235-.235.146-.254.388-.191-.064-.4-.693.153-1.6a5.454,5.454,0,0,0-.42.636c-.191.191-.191-.1-.318-.178.133-.235.286-.464.229-.5l-.242-.165a6.808,6.808,0,0,0-.559,1.011c.114-.267.261-.515.2-.553l-.254-.14a7.722,7.722,0,0,1,1.271-1.685l-.146-.153a5.873,5.873,0,0,0-1.329,1.729c.1-.305.038-.343-.083-.419a12.81,12.81,0,0,1,1.907-2.206,7.2,7.2,0,0,0-.744.636,2.434,2.434,0,0,1,1.074-1.106A12.082,12.082,0,0,1,344.536,448.666Z" transform="translate(-1176.118 2806.112)" fill="#93969a"/></g></svg>