<svg xmlns="http://www.w3.org/2000/svg" width="89.873" height="66.525" viewBox="0 0 89.873 66.525"><g transform="translate(1034.589 -3183.311)"><path d="M102.6,378.1a10.171,10.171,0,0,0-.706-3.871,10.4,10.4,0,0,0-2-3.178,2.454,2.454,0,0,0-.528-2,11.1,11.1,0,0,0-3.178-2.848A5.124,5.124,0,0,0,92.5,365.5a3.5,3.5,0,0,0-1.17-.528,2.416,2.416,0,0,0-1,0c-.375.076-.75.172-1.125.261l-.795.153H86.369a6.717,6.717,0,0,0-.947.076,8.729,8.729,0,0,0-1.119.242h.07a1.4,1.4,0,0,0-.483.057,9.727,9.727,0,0,0-2.371.636,11.8,11.8,0,0,0-4.24,3.1c-.477.807-.934,1.487-1.322,2.168a.248.248,0,0,0-.051.064,2.079,2.079,0,0,0-.286.292h0a1.864,1.864,0,0,0-.261.42,2.657,2.657,0,0,1,.273-.407l.083.064q-.121.248-.229.5c-.636.82-1.087,2.047-1.468,2.314.273.515.458-.305.693-1-.114.369-.2.782-.3,1.2s-.14.852-.21,1.271v.14c0-.362-.133-.636.14-.985-.089-.229-.2-.178-.356.064-.114.814-.413,2.346-.1,2.441a2.1,2.1,0,0,1-.191.458l.273.4a.936.936,0,0,1-.051.178,1.27,1.27,0,0,0,.1-.153,6.177,6.177,0,0,0,.737,2.854c.1.057.191.1.261.127-.064.318-.2-.1-.375-.159.2.706.439,1.214.756,1.316-.114-.381-.242-.756-.324-1.144a.394.394,0,0,0,.235,0c.292.318.547.566.547.7.114.5.191.941.267,1.367h0c.057.356.121.693.178,1.023h-.089c-.21-.451-.566-1.074-.636-1.335a7.7,7.7,0,0,0,.114.928l.305.172c.051.127.051.2,0,.248h0a.241.241,0,0,1-.083.064l.038.044v.108h.108c.083.1.172.2.261.3s.045,0,.051-.038a2.5,2.5,0,0,0,.528,1.627h.044a5.93,5.93,0,0,0,.782,1.221,1.971,1.971,0,0,0,.782.362l.07.057a1.151,1.151,0,0,0,.553.051.489.489,0,0,0,.254,0,4.653,4.653,0,0,0-.712-1.4l.114.1-.045-.083h-.07a6.8,6.8,0,0,1-.636-1.233,7.755,7.755,0,0,0,.057-.839c0-.489.68.038.884.127a4.641,4.641,0,0,0-.388-1.532,9.961,9.961,0,0,0,1.373,1.507l-.184.159c.5.343.362.7.979,1.023h0c.044-.35-.229-.578-.439-.877a10.076,10.076,0,0,0,5.162,2.174l2.937.337a10.031,10.031,0,0,0,1.443.057,6.428,6.428,0,0,1-1.513.547,3.013,3.013,0,0,0,.5,1.551,2.781,2.781,0,0,0,2.384.909,5.932,5.932,0,0,0,1.2-.159,8.322,8.322,0,0,0,1.945-.114,6.054,6.054,0,0,1,.515-.4c.178-.146.369-.3.572-.445.407-.286.826-.636,1.24-.954l.451-.375.28-.076c.153-.222.413-.5.636-.782h0c.254-.254.489-.5.674-.718a10.54,10.54,0,0,0,3.115-4.323c.153-.407.28-.826.4-1.24s.178-.839.261-1.271a12.445,12.445,0,0,0,.121-1.271A10.736,10.736,0,0,0,102.6,378.1ZM76.23,385.172h.038a1.138,1.138,0,0,1,0,.146.707.707,0,0,0-.038-.146Z" transform="translate(-1078.85 2818.394)" fill="#93969a"/><path d="M95.274,406.75c-.229,0-.585-.089-.47-.242l-.343.159,1.023.146c-.172-.191-.483-.337-.445-.585l-.439-.089a1.838,1.838,0,0,1,.674.61Z" transform="translate(-1086.413 2807.75)" fill="#93969a"/><path d="M95.693,406.232c.191-.172-.083-.28-.439-.362-.394.108.559-.038.242.28C95.61,406.162,95.693,406.169,95.693,406.232Z" transform="translate(-1086.667 2807.689)" fill="#93969a"/><path d="M95.589,406.284a1.27,1.27,0,0,1-.229-.044h0l.21.038Z" transform="translate(-1086.741 2807.568)" fill="#93969a"/><path d="M91.87,406.06c0,.057.051.121.159.191C92.048,406.2,91.953,406.13,91.87,406.06Z" transform="translate(-1085.47 2807.625)" fill="#93969a"/><path d="M91.34,405c.267.153.407.267.305.426l-.222-.07c-.057.1.114.21.254.311C91.632,405.458,92.1,405.318,91.34,405Z" transform="translate(-1085.276 2807.854)" fill="#93969a"/><path d="M93.425,404.64l-.165.044,1,.521C94.214,404.793,93.775,405.034,93.425,404.64Z" transform="translate(-1085.976 2807.86)" fill="#93969a"/><path d="M75.446,395.094l.038-.089-.114-.1C75.4,394.967,75.414,395.024,75.446,395.094Z" transform="translate(-1079.458 2808.659)" fill="#93969a"/><path d="M74.93,393.17a9.646,9.646,0,0,0,.114.96,1.271,1.271,0,0,1,.165.146C75.013,393.7,75.3,393.793,74.93,393.17Z" transform="translate(-1079.298 2809.067)" fill="#93969a"/><path d="M75.55,394.976a2.148,2.148,0,0,1,.47.9,2.543,2.543,0,0,0,.636,1.106,19,19,0,0,0-1.036-2.149Z" transform="translate(-1079.524 2809.195)" fill="#93969a"/><path d="M27.39,436.149V415.47h5.047v20.679Z" transform="translate(-1061.979 2812.837)" fill="#272525"/><path d="M42.2,436.4a9.36,9.36,0,0,1,0-12.25,8,8,0,0,1,5.912-2.282,8.569,8.569,0,0,1,5.085,1.487,7.05,7.05,0,0,1,2.772,4.259H50.524a2.39,2.39,0,0,0-2.295-1.475,2.7,2.7,0,0,0-2.384,1.138,6.109,6.109,0,0,0,0,5.982,2.587,2.587,0,0,0,2.282,1.138,2.835,2.835,0,0,0,1.475-.324,2.765,2.765,0,0,0,.941-1.151H56a7.329,7.329,0,0,1-2.8,4.215,8.327,8.327,0,0,1-5.085,1.564,7.984,7.984,0,0,1-5.918-2.3Z" transform="translate(-1066.538 2811.13)" fill="#272525"/><path d="M69.808,436.353a8,8,0,0,1-2.492-6.153,7.889,7.889,0,0,1,2.479-6.09,9.36,9.36,0,0,1,12.25,0,7.921,7.921,0,0,1,2.46,6.09,8.054,8.054,0,0,1-2.447,6.128,8.474,8.474,0,0,1-6.1,2.333A8.658,8.658,0,0,1,69.808,436.353Zm8.569-3.032a4.31,4.31,0,0,0,1-3.07,4.176,4.176,0,0,0-1.03-3.051,3.337,3.337,0,0,0-2.447-1.042,3.3,3.3,0,0,0-2.428,1.042,5.054,5.054,0,0,0,.032,6.122,3.356,3.356,0,0,0,2.46,1.062,3.223,3.223,0,0,0,2.416-1.062Z" transform="translate(-1076.521 2811.132)" fill="#272525"/><path d="M104.041,422.058v2.454a5.386,5.386,0,0,1,4.984-2.594,5.982,5.982,0,0,1,4.583,1.907,7.24,7.24,0,0,1,1.754,5.13V438.5h-5.016v-8.9a3.4,3.4,0,0,0-.839-2.46,3.509,3.509,0,0,0-4.628,0,3.4,3.4,0,0,0-.839,2.46v8.9H99V422.058Z" transform="translate(-1088.067 2811.044)" fill="#272525"/><path d="M135.341,416.316a2.95,2.95,0,0,1-5.041-2.1,2.918,2.918,0,0,1,2.95-2.962,2.823,2.823,0,0,1,2.091.852A3.02,3.02,0,0,1,135.341,416.316Zm-4.6,18.3V418.172h5.041v16.439Z" transform="translate(-1099.47 2814.005)" fill="#272525"/><path d="M145.808,436.4a9.338,9.338,0,0,1,0-12.25,7.971,7.971,0,0,1,5.906-2.282,8.588,8.588,0,0,1,5.085,1.487,7.107,7.107,0,0,1,2.772,4.259h-5.454a2.4,2.4,0,0,0-2.314-1.475,2.7,2.7,0,0,0-2.39,1.138,6.109,6.109,0,0,0,0,5.982,2.6,2.6,0,0,0,2.282,1.138,2.822,2.822,0,0,0,1.475-.324,2.772,2.772,0,0,0,.947-1.151h5.454a7.336,7.336,0,0,1-2.8,4.215,8.315,8.315,0,0,1-5.085,1.564A7.959,7.959,0,0,1,145.808,436.4Z" transform="translate(-1104.286 2811.13)" fill="#272525"/></g></svg>