<svg xmlns="http://www.w3.org/2000/svg" width="81.908" height="78.188" viewBox="0 0 81.908 78.188"><g transform="translate(864.524 -3032.595)"><path d="M364.528,202.413l-1.615-1.615c5.683-4.068-.8-5.677-2.212-8.308a22.682,22.682,0,0,1-8.9,5.721l-2.435,2.435c-14.347,14.271-26.985,28.5-41.682,41.695a279.62,279.62,0,0,0,27.163-25.605c.2.331.331.852.871.744-7.12,11.163-18.886,16.458-26.813,26.813l-1.608-1.6c-3.4,3.032-6.9,6.014-10.571,8.9a7.316,7.316,0,0,0-1.805,5.238c12.517-6.91,22.885-17.8,33.691-27.182-4.265,4.265-8.734,9.535-13.813,13-6.9,5.283-11.983,11.175-18.683,15.447-.375.216-.756.432-1.144.636.076.852.191,1.665.286,2.39.807,3.236,3.032,6.681,7.495,6.262l1.824-1.824a7.685,7.685,0,0,1,2.441,2.543c4.38-3.509,8.658-7.12,12.968-10.692a111.631,111.631,0,0,1,16.3-12.771c-5.651,4.037-11,8.378-16.3,12.771-4.126,3.776-8.169,7.724-12.313,11.589.826,1.093,1.723,1.907,3.178,1.627,2.428,0,5.486-5.486,8.327-7.52,8.321-5.085,15.256-12.8,23.145-18.3,5.683-4.062,10.171-9.345,14.621-14.621,5.9-7.507,14.831-13.2,18.7-20.31C378.919,203.4,371.431,199.559,364.528,202.413Z" transform="translate(-1159.444 2840.105)" fill="#93969a"/><path d="M323.384,240.415l-9.612-13.686v7.952c0,2.041.127,5.505,3.852,5.505v.229h-8.111v-.229c3.522,0,4.03-3.49,4.03-5.505v-8.264l-1.2-1.7c-1.532-2.015-2.543-1.99-3.178-2.041v-.2h8.156l8.664,12.517v-6.808c0-2.371-.814-5.505-3.649-5.505v-.2h7.7v.2c-3.178,0-3.852,3.134-3.852,5.505v12.237Z" transform="translate(-1164.635 2827.483)" fill="#27272e"/><path d="M358.641,235.415v5H343.76v-.229c1.068,0,1.475-1.532,1.475-3.261v-10.94c0-1.583-.356-3.318-1.475-3.318v-.2h14.551v5.225h-.229c0-4.971-6.993-5-6.993-5h-.884v8.544h2.066a3.014,3.014,0,0,0,3.007-3.013h.229v6.249h-.229a3.026,3.026,0,0,0-3.007-3.007h-2.066v8.715h.915s7.291.28,7.291-4.768Z" transform="translate(-1177.237 2827.485)" fill="#27272e"/><path d="M398.98,222.455v.2c-1.017,0-2.575.788-4.45,5.276L390.08,240.4h-.922c-2.371-5.53-3.9-9.1-4.92-11.442L380.163,240.4h-.922c-6.414-15.015-6.745-15.7-6.745-15.7-.871-2.041-1.227-2.015-1.907-2.066v-.2h7.952v.2c-1.634,0-.331,2.956-.331,2.956l3.846,8.747,2.041-5.683c-1.551-3.623-1.7-3.954-1.7-3.954-.871-2.041-1.227-2.015-1.907-2.066v-.2h7.952v.2c-1.634,0-.331,2.956-.331,2.956l3.814,8.772,2.295-6.452c.636-1.805.076-5.276-2.543-5.276v-.2Z" transform="translate(-1187.011 2827.49)" fill="#27272e"/><path d="M326.91,257.223v.2c-1.017,0-2.575.795-4.45,5.276l-4.45,12.466h-.915c-2.371-5.53-3.9-9.1-4.92-11.442L308.1,275.168h-.922c-6.42-15.009-6.751-15.676-6.751-15.676-.871-2.034-1.227-2.009-1.907-2.066v-.2h7.952v.2c-1.634,0-.331,2.962-.331,2.962l3.814,8.741,2.091-5.7c-1.557-3.623-1.71-3.954-1.71-3.954-.865-2.034-1.221-2.009-1.907-2.066v-.2h7.952v.2c-1.634,0-.331,2.962-.331,2.962l3.814,8.766,2.295-6.452c.636-1.805.076-5.276-2.543-5.276v-.2Z" transform="translate(-1160.755 2824.696)" fill="#27272e"/><path d="M350.1,257.23h.133c6.446,14.786,6.878,15.625,6.878,15.625.922,2.041,1.786,2.066,2.295,2.117v.2h-8.925v-.2c2.034,0,.509-2.981.509-2.981l-.82-1.761h-4.99c-.515,1.176-.057,4.742,3.007,4.742v.2H340.85v-.2c.763-.051,2.142-.254,4.1-4.742Zm-2.543,7.037-2.263,5.721h4.812Z" transform="translate(-1176.177 2824.692)" fill="#27272e"/><path d="M387.034,257.215v.2c-1.1,0-2.727.795-4.717,5.276L377.3,275.161h-.737c-6.834-15.009-7.19-15.676-7.19-15.676-.915-2.034-1.271-2.009-2.015-2.066v-.2h8.48v.2c-1.755,0-.356,2.962-.356,2.962l3.954,8.766,2.625-6.478c.763-1.907.305-5.276-2.753-5.276v-.2Z" transform="translate(-1185.835 2824.7)" fill="#27272e"/><path d="M415.238,270.179v5H400.35v-.229c1.068,0,1.481-1.526,1.481-3.261V260.752c0-1.583-.362-3.318-1.481-3.318v-.2h14.557v5.225h-.229c0-4.965-6.961-4.99-6.961-4.99H406.8v8.518h2.06a3.02,3.02,0,0,0,3.013-3.007h.229v6.242h-.229a3.032,3.032,0,0,0-3.013-3.007H406.8v8.734h.915s7.291.28,7.291-4.768Z" transform="translate(-1197.853 2824.692)" fill="#27272e"/></g></svg>