<svg xmlns="http://www.w3.org/2000/svg" width="121.416" height="80.458" viewBox="0 0 121.416 80.458"><g transform="translate(1052 -3029.092)"><path d="M103.4,227.481a15.638,15.638,0,0,0-1,2.047l-.14.267c.038-.083.076-.159.108-.235a1.609,1.609,0,0,1-.076.146l-.038.1a25.332,25.332,0,0,1-1.271,2.231c-.305.305-.489.515-.8.865-.5.559.311-.96.5-1.354-.432.5-.934,1.271-1.557,2.1l-.172.216a24.841,24.841,0,0,0,2.1-3.814l.051.089c.267-.6.458-.947.636-1.329a14.582,14.582,0,0,0,.559-1.475v-.045h0a5.027,5.027,0,0,0-.572,1.151c-.051.121-.1.254-.153.381a24.645,24.645,0,0,0-.35-18.511h0a25.551,25.551,0,0,0-1.3-2.606c.559.814,1.068,1.646,1.545,2.5a2.543,2.543,0,0,0,.038-1.4,8.01,8.01,0,0,0-.489-1.545c-.153-.318-.337-.68-.553-1.081l-.356-.636a4.761,4.761,0,0,0-.451-.693,19.812,19.812,0,0,0-1.233-1.621c-.07-.1-.133-.191-.21-.286l-.954-1.151-.515-.6c-.184-.2-.381-.381-.578-.578a36.367,36.367,0,0,0-4.246-2.861L91,197.235l-.388-.273-1.545-.636-.756-.337c-.369-.146-.731-.248-1.055-.362a24.792,24.792,0,0,0-18.435.267,13.348,13.348,0,0,0-1.627.744,17.161,17.161,0,0,0-1.621.845l-1.507.96-.369.242-.35.28-.693.559a24.964,24.964,0,0,0-2.543,2.4c-.4.42-.737.89-1.106,1.329-.235.28-.458.572-.674.865-.1.127-.21.286-.337.489-.254.242-.585.566-.985,1.011a11.111,11.111,0,0,0-1.221,1.793,24.4,24.4,0,0,0-2.772,7.2l-.108.477-.07.483c-.038.318-.076.636-.121.941s-.07.636-.1.915a8.372,8.372,0,0,0,0,.89v1.634a13.535,13.535,0,0,0,.2,1.4c0,.381-.032.776-.032,1.17a9.175,9.175,0,0,0,.121,1.138,10.654,10.654,0,0,0,.35,1.812,35.66,35.66,0,0,0,1.271,3.623l.032.076a23.145,23.145,0,0,0,4.354,7.507c-.038-.064-.133-.191-.184-.28l.248.3c.114.153.242.305.381.464a24.353,24.353,0,0,0,3.331,3.242l1.074.756a11.378,11.378,0,0,0,1.1.731l1.138.667.559.331c.191.1.388.184.578.28a22.917,22.917,0,0,0,4.3,1.685c.763.153,1.487.305,2.187.458l2.047.28c.2.032.394.051.585.064h.324l.4.038h.032l.915.064-.909-.07v-.038h3.471c.578,0,1.106-.083,1.545-.108a9.68,9.68,0,0,1,.973-.051c.769-.292-.763-.032-2.11.14.706-.083,1.475-.229,2.263-.35s1.564-.388,2.327-.559l.273-.07-.458.14a6.771,6.771,0,0,1-1.36.331c-.356.153-.216.159.261.083a20.342,20.342,0,0,0,4.272-1.411h0c.273-.1.521-.191.744-.261l.636-.439.305-.114-.267.076a19.827,19.827,0,0,0,4.6-3c.108-.127.184-.223.242-.3.47-.28-.2.235-.324.413.273-.21.534-.4.756-.591l.585-.553a5.212,5.212,0,0,0,.706-.795l-.858.9-.47.42-.28.2c.083-.114.1-.165.089-.184q.159-.159.305-.324a9.289,9.289,0,0,1,.839-.877,35.052,35.052,0,0,0,3.178-3.077l-.057.121-.267.35c-.534.68-1.271,1.4-1.526,1.723l1.176-1.106a3.4,3.4,0,0,0,.3-.483,1.824,1.824,0,0,1,.267-.3H99.2l.057-.083.114-.1v-.083l.413-.6v-.038c.178-.184.362-.362.559-.578.3-.394.636-.89,1.151-1.685l.032-.1a20.527,20.527,0,0,0,1.176-2.123,6.541,6.541,0,0,0,.445-1.424,1.014,1.014,0,0,0,.045-.127,4.177,4.177,0,0,0,.172-.877A1.341,1.341,0,0,0,103.4,227.481Zm-4.011,7.628v-.032L99.47,235l.083-.089Z" transform="translate(-1071.163 2835.112)" fill="#93969a"/><path d="M131.545,220.375l-.165-.477v-.038l.184.521Z" transform="translate(-1099.864 2824.974)" fill="#93969a"/><path d="M131.211,219.549a1.717,1.717,0,0,1-.134-.445c-.222-.35,0,.286.254,1.093C131.7,221.011,130.842,219,131.211,219.549Z" transform="translate(-1099.72 2825.182)" fill="#93969a"/><path d="M131.475,219.233c.2.5.47,1.31.324,1.119l.343.687-.833-2.288c.1.458.324,1.214.21,1.22l.343.979A12.367,12.367,0,0,1,131.475,219.233Z" transform="translate(-1099.838 2825.34)" fill="#93969a"/><path d="M133.82,227.87v.426A1.811,1.811,0,0,0,133.82,227.87Z" transform="translate(-1100.753 2824.216)" fill="#93969a"/><path d="M133.7,228.474c-.07.191-.305-.8-.134.909,0-.477-.057-.966.051-.756l.057.5C133.736,229.262,133.711,228.83,133.7,228.474Z" transform="translate(-1100.637 2824.264)" fill="#93969a"/><path d="M132.008,222.665c-.044-.2-.108-.388-.165-.585-.051.127.064.394.146.763a9.49,9.49,0,0,1,.235,1.271l.114.343-.216-1.2Z" transform="translate(-1100.028 2825.049)" fill="#93969a"/><path d="M123.579,262.52l-.089.057-.14.2Z" transform="translate(-1096.938 2820.972)" fill="#93969a"/><path d="M121.795,263.522a5.979,5.979,0,0,0-.795.706c.42-.35.858-.68,1.271-1.043l.222-.305A3.584,3.584,0,0,1,121.795,263.522Z" transform="translate(-1096.082 2821.134)" fill="#93969a"/><path d="M123.32,260.9l.159-.1a13.063,13.063,0,0,1,1.2-1.348c.369-.451.788-.966,1.36-1.805-.477.572-.947,1.163-1.379,1.742Z" transform="translate(-1096.927 2821.951)" fill="#93969a"/><path d="M3.522,230.92v.14a.756.756,0,0,0-.782.858V235.8a2.894,2.894,0,0,1-2.7,3.267L0,238.93c.807-.286,1.564-1.036,1.564-3.07v-2.8c0-1.761,0-2-.731-2v-.14Z" transform="translate(-1052 2825.168)" fill="#27272e"/><path d="M20.732,237.506h-2.4v-.14c.636,0,.324-.763.216-1.03l-.305-.744H15.92c-.127.369-.636,1.831.769,1.774v.14h-2.2v-.14c.3,0,.534,0,1.392-2.18l1.6-4.265H17.6c1.723,4.126,2.352,5.721,2.352,5.721.305.75.521.7.776.718Zm-2.543-2.06-1.163-2.918-1.074,2.892Z" transform="translate(-1057.279 2824.914)" fill="#27272e"/><path d="M41.963,237.359v.14H39.35v-.14c.394,0,.674-.267.674-.973V231.3l-2.365,6.274h-.146L34.894,231.9v3.242c0,.54.076,2.206,1.271,2.206v.14H33.4v-.14c1.271,0,1.354-1.672,1.354-2.206v-3.465a1.132,1.132,0,0,0-1.049-.636v-.14h2.117l2.339,5.028,1.863-5.028h1.907v.14c-.407,0-.725.223-.725.82v4.513C41.174,237.092,41.562,237.359,41.963,237.359Z" transform="translate(-1064.168 2824.93)" fill="#27272e"/><path d="M59.123,230.92v.14c-.4,0-.731.2-.731.788v4.6c0,.636.337.922.731.922v.14H56.51v-.14c.407,0,.731-.286.731-.922v-4.6c0-.585-.318-.788-.731-.788v-.14Z" transform="translate(-1072.587 2824.914)" fill="#27272e"/><path d="M75.24,235.516v1.99H70.25v-.14c.394,0,.528-.407.528-1.049v-4.259c0-.578-.114-1-.528-1v-.14h4.869v1.729h-.14c-.159-1.583-2.238-1.589-2.625-1.589h-.42v3.051h.47c.127,0,1.335,0,1.411-.954h.14v2.06h-.14c-.076-.966-1.271-.966-1.411-.966h-.47v3.115h.388c.407,0,2.479,0,2.778-1.85Z" transform="translate(-1077.593 2824.914)" fill="#27272e"/><path d="M95.193,236.215a1.144,1.144,0,0,1-1.081,1.17s-.922.083-1.271-.47l-.528-.769c-.356,1.068-2.276,1.863-3.178.566s.292-2.314,1.03-2.746l.47-.28-.5-.75c-.884-1.214-.292-2.384.756-2.543a1.36,1.36,0,0,1,1.354.381c.369.432.782,1.538-.636,2.543l1.132,1.735a1.551,1.551,0,0,1,1.081-1.017.725.725,0,0,1,.636.108.515.515,0,0,1,.057.756.547.547,0,0,1-.769.07.54.54,0,0,1-.178-.369c0-.2-.5-.044-.737.566l.737,1.068a1.017,1.017,0,0,0,.782.426.669.669,0,0,0,.731-.445Zm-3.007-.21-1.526-2.2-.47.3a1.494,1.494,0,0,0-.159,2.212,1.271,1.271,0,0,0,2.155-.311Zm-1.392-3.814.68.979c1.221-.807,1.011-1.8.6-2.314a.992.992,0,0,0-1-.267,1.036,1.036,0,0,0-.273,1.589Z" transform="translate(-1084.355 2825.039)" fill="#27272e"/><path d="M114.752,237.506h-2.409v-.14c.636,0,.331-.763.216-1.03l-.3-.744h-2.32c-.133.369-.636,1.831.769,1.774v.14h-2.2v-.14c.3,0,.534,0,1.392-2.18l1.6-4.265h.121c1.723,4.126,2.352,5.721,2.352,5.721.305.75.521.7.776.718Zm-2.543-2.06-1.157-2.918-1.087,2.892Z" transform="translate(-1091.532 2824.914)" fill="#27272e"/><path d="M134.756,230.92v.14c-1.386,0-1.36,1.78-1.36,2.206v4.24h-.4l-4.037-5.136v2.772c0,.42,0,2.225,1.271,2.225v.14h-2.765v-.14c1.373,0,1.373-1.805,1.373-2.225v-2.9l-.375-.477c-.6-.744-.871-.636-1.112-.68v-.14h2.009l3.916,4.933v-2.587c0-.426,0-2.219-1.271-2.206v-.14Z" transform="translate(-1098.396 2824.914)" fill="#27272e"/><path d="M155.528,230.92v.14c-1.386,0-1.36,1.78-1.36,2.206v4.24h-.407l-4.037-5.136v2.772c0,.42,0,2.225,1.271,2.225v.14h-2.772v-.14c1.373,0,1.373-1.805,1.373-2.225v-2.9l-.375-.477c-.6-.744-.871-.636-1.112-.68v-.14h2.015l3.909,4.933v-2.587c0-.426,0-2.219-1.271-2.206v-.14Z" transform="translate(-1105.959 2824.914)" fill="#27272e"/><path d="M172.033,230.92v.14c-.4,0-.731.2-.731.788v4.6c0,.636.337.922.731.922v.14H169.42v-.14c.4,0,.731-.286.731-.922v-4.6c0-.585-.318-.788-.731-.788v-.14Z" transform="translate(-1113.722 2824.914)" fill="#27272e"/><path d="M188.14,235.516v1.99h-4.99v-.14c.394,0,.521-.407.521-1.049v-4.259c0-.578-.108-1-.521-1v-.14h4.869v1.729h-.14c-.159-1.583-2.238-1.589-2.625-1.589h-.42v3.051h.47c.127,0,1.335,0,1.411-.954h.153v2.06h-.14c-.076-.966-1.271-.966-1.411-.966h-.47v3.115h.381c.413,0,2.486,0,2.784-1.85Z" transform="translate(-1118.724 2824.914)" fill="#27272e"/><path d="M68.2,290.084a2.32,2.32,0,0,1-1.341-.311v-1h.07a1.3,1.3,0,0,0,1.271,1.24c.68,0,.82-.826.191-1.271l-.826-.54c-.636-.4-1-.9-.585-1.5a1.208,1.208,0,0,1,1.043-.4,2.7,2.7,0,0,1,1.271.254v.877h-.076a1.17,1.17,0,0,0-1.189-1.055c-.572,0-.89.718-.153,1.2l.839.547c.693.464.9,1.036.566,1.538A1.3,1.3,0,0,1,68.2,290.084Z" transform="translate(-1076.336 2819.46)" fill="#27272e"/><path d="M79.651,286.37v.992h-.076c0-.9-1.03-.909-1.068-.909h-.2V289.5c0,.35.191.489.413.489v.076H77.248v-.076c.222,0,.413-.14.413-.489v-3.045h-.2c-.076,0-1.03,0-1.062.909H76.32v-.992Z" transform="translate(-1079.804 2819.431)" fill="#27272e"/><path d="M87.124,288.77v-1.907c0-.331-.165-.451-.394-.451v-.083h1.488v.083c-.222,0-.458.064-.458.458v1.907a.909.909,0,0,0,.928,1,.928.928,0,0,0,.9-1.023V287.27c0-.254,0-.884-.636-.877v-.083H90.4v.083c-.744,0-.731.636-.731.877v1.488a1.182,1.182,0,0,1-1.271,1.271,1.22,1.22,0,0,1-1.271-1.259Z" transform="translate(-1083.597 2819.442)" fill="#27272e"/><path d="M99.1,290.063H97.83v-.076c.222,0,.369-.235.369-.591v-2.352c0-.324-.14-.591-.369-.591v-.083H99.1c1.043,0,2.136.324,2.136,1.863S100.144,290.063,99.1,290.063Zm0-3.611h-.235v3.534H99.1c.534,0,1.36-.07,1.36-1.754S99.648,286.453,99.1,286.453Z" transform="translate(-1087.641 2819.431)" fill="#27272e"/><path d="M110.272,286.37v.083c-.229,0-.407.114-.407.439v2.575c0,.356.184.521.407.521v.076H108.81v-.076c.222,0,.407-.165.407-.521v-2.575c0-.324-.178-.439-.407-.439v-.083Z" transform="translate(-1091.641 2819.431)" fill="#27272e"/><path d="M118.355,290.071a1.7,1.7,0,0,1-1.761-1.869,1.767,1.767,0,1,1,3.515,0,1.7,1.7,0,0,1-1.755,1.869Zm0-3.712c-.636,0-1.011.407-1.011,1.844s.381,1.793,1.011,1.793.992-.35.992-1.793S118.972,286.359,118.355,286.359Z" transform="translate(-1094.474 2819.467)" fill="#27272e"/></g></svg>