<svg xmlns="http://www.w3.org/2000/svg" width="219.664" height="110.912" viewBox="0 0 219.664 110.912"><defs><style>.a{fill:#ffc400;}.b{fill:#ff318b;}.c{fill:#25252d;}.d{fill:#2edce3;}.e{fill:#383f45;stroke:rgba(0,0,0,0);stroke-miterlimit:10;}</style></defs><g transform="translate(-921.203 933)"><g transform="translate(1072.439 -933)"><path class="a" d="M105.33,105.287H101.2a.994.994,0,0,1-.661-.165h-.331a10.692,10.692,0,0,1-2.149-.661l-.331-.165a8.058,8.058,0,0,0-1.157-.5,15.965,15.965,0,0,1-5.62-4.3,2.282,2.282,0,0,1-.5-.661c-.165-.165-.331-.5-.5-.661l-.165-.165c-.165-.165-.165-.331-.331-.5l-.165-.331c-.165-.165-.165-.331-.331-.5l-.165-.165a5.871,5.871,0,0,1-.661-1.488.162.162,0,0,0-.165-.165c0-.165-.165-.331-.165-.5s0-.165-.165-.331c0-.165-.165-.331-.165-.5v-.331a5.873,5.873,0,0,1-.331-1.653V17.19A17.249,17.249,0,0,0,70.124,0,17.04,17.04,0,0,0,53.1,16.694V76.527a43.663,43.663,0,0,0,.331,4.793,30.507,30.507,0,0,0,.661,3.8,27.386,27.386,0,0,0,2.314,6.116,30.611,30.611,0,0,0,3.471,5.454,37.1,37.1,0,0,0,9.752,8.76,41.784,41.784,0,0,0,6.116,2.975,31.549,31.549,0,0,0,6.777,1.818h0a39.2,39.2,0,0,0,15.206-.165,42.8,42.8,0,0,0,7.438-2.314,37,37,0,0,0,6.611-3.636,37.871,37.871,0,0,0,3.8-3.471A16.694,16.694,0,0,1,105.33,105.287Z" transform="translate(-52.769)"/><path class="a" d="M105.461,105.222h-1.653a16.8,16.8,0,0,1-12.727-5.785,2.282,2.282,0,0,1-.5-.661,16.964,16.964,0,0,1-3.636-10.413V17.124A17.142,17.142,0,0,0,69.759.1,16.862,16.862,0,0,0,52.9,16.629V76.462a43.662,43.662,0,0,0,.331,4.793,30.508,30.508,0,0,0,.661,3.8,27.386,27.386,0,0,0,2.314,6.116,30.611,30.611,0,0,0,3.471,5.454,37.1,37.1,0,0,0,9.752,8.76,41.786,41.786,0,0,0,6.116,2.975,31.549,31.549,0,0,0,6.777,1.818h0a39.2,39.2,0,0,0,15.206-.165,42.8,42.8,0,0,0,7.438-2.314,37,37,0,0,0,6.611-3.636,37.872,37.872,0,0,0,3.8-3.471C115.543,100.759,109.263,104.891,105.461,105.222Z" transform="translate(-52.9 0.065)"/><path class="b" d="M90.459,43.5a16.777,16.777,0,1,1,0,33.553h0A16.824,16.824,0,0,1,73.6,60.194h0V43.5Z" transform="translate(-39.386 28.399)"/><path class="c" d="M87.214,48.953V15.4H69.859A16.93,16.93,0,0,0,53,32.259V48.953Z" transform="translate(-52.835 10.054)"/><path class="d" d="M90.724,48.953H73.7V15.4H90.724a17.04,17.04,0,0,1,17.024,16.694h0A16.93,16.93,0,0,1,90.89,48.953Z" transform="translate(-39.321 10.054)"/></g><g transform="translate(921.703 -899.289)"><path class="e" d="M31.3,49.66a9.224,9.224,0,0,1-4.268-2.981,13.819,13.819,0,0,1-2.44-5.217,31.208,31.208,0,0,1-.812-7.655V0H33.27V32.451c0,1.965.473,3.319,1.355,4.064S37.131,37.6,39.5,37.6H65.313v.068A17.454,17.454,0,0,0,71,36.855V26.015h8.13v7.859a3.662,3.662,0,0,0,.406,1.83,2.7,2.7,0,0,0,1.288,1.151,9.1,9.1,0,0,0,2.438.61,28,28,0,0,0,3.591.2l.068-.068H99.8v.016l2.167.052a6.967,6.967,0,0,0,4.065-.881,3.569,3.569,0,0,0,1.218-3.05,54.3,54.3,0,0,0-1.828-11.313l.406-.543h8.2c.473,2.44.812,4.607,1.016,6.572s.338,3.726.338,5.284c0,5.623-1.083,9.824-3.183,12.6s-5.488,4.132-10.162,4.132h-17l-.068.068h-.068A18.556,18.556,0,0,1,77.3,49.185a9.112,9.112,0,0,1-4.47-4.4q-2.339,5.69-9.553,5.69H37.469l.135.135A19.268,19.268,0,0,1,31.3,49.66ZM0,43.69c0-4.315,2.083-6.4,6.4-6.4s6.4,2.084,6.4,6.4-2.083,6.4-6.4,6.4S0,48.005,0,43.69ZM79.88,21.272l-4.674-4.539L70.53,21.272h-.677l-5.691-5.555,5.691-5.556h.677l4.675,4.54,4.674-4.54h.677l5.691,5.556-5.691,5.555Zm33.738-4.064-4.674-4.54-4.675,4.54h-.677L97.9,11.652,103.592,6.1h.677l4.675,4.539L113.618,6.1h.678l5.69,5.555-5.69,5.556Z" transform="translate(0 0)"/></g></g></svg>